<svg version="1.1" id="Layer_1" xmlns="http://www.w3.org/2000/svg" xmlns:xlink="http://www.w3.org/1999/xlink" x="0px" y="0px"
	 width="100%" viewBox="0 0 1024 1024" enable-background="new 0 0 1024 1024" xml:space="preserve">
<path fill="#000000" opacity="1.000000" stroke="none" 
	d="
M0.999999,481.468658 
	C2.204701,470.444550 3.400662,459.888062 4.615795,449.333801 
	C7.856737,421.184082 13.697065,393.565277 21.825628,366.437805 
	C48.289097,278.121246 95.156807,202.257996 162.374878,139.304688 
	C236.104385,70.253105 322.866241,26.573931 422.419250,8.563564 
	C441.253967,5.156138 460.256439,3.235130 479.634033,1.151610 
	C501.687561,1.000000 523.375122,1.000000 545.531372,1.000001 
	C556.053528,2.191210 566.103088,3.417893 576.161377,4.567224 
	C611.837708,8.643844 646.574036,16.838764 680.475586,28.575130 
	C758.401123,55.552185 825.955933,98.889015 882.919128,158.418091 
	C939.735229,217.793488 980.183716,286.875732 1003.777710,365.735474 
	C1012.953186,396.403229 1019.316406,427.594879 1022.403015,459.450592 
	C1023.267639,468.373444 1023.935242,477.315369 1024.846680,486.624268 
	C1025.000000,503.354218 1025.000000,519.708435 1025.000000,536.531372 
	C1024.473999,542.951172 1023.868835,548.896484 1023.434204,554.854370 
	C1019.464050,609.280884 1006.391785,661.494995 985.296875,711.752319 
	C964.426819,761.473938 936.358215,806.799744 901.045044,847.500122 
	C838.679443,919.379883 762.265198,970.356384 671.831421,1000.205322 
	C642.029907,1010.041748 611.514221,1016.784302 580.458801,1021.050964 
	C568.932007,1022.634583 557.299805,1023.450012 545.357788,1024.807861 
	C524.312439,1025.000000 503.624878,1025.000000 482.468658,1025.000000 
	C473.912476,1024.119995 465.827515,1023.215271 457.736969,1022.363831 
	C401.792328,1016.476196 348.241608,1001.800537 297.338745,977.892029 
	C202.039688,933.131226 127.213707,865.490845 72.936066,775.305481 
	C39.141171,719.153381 17.422146,658.492188 6.892742,593.820801 
	C4.139022,576.907532 2.787043,559.832336 1.093319,542.393677 
	C1.000000,521.979126 1.000000,501.958221 0.999999,481.468658 
M622.691284,25.989222 
	C595.554565,19.741287 568.050781,15.787666 540.268433,14.543446 
	C509.302307,13.156640 478.371796,13.970174 447.544769,18.083624 
	C403.215759,23.998730 360.421570,35.406559 319.285675,52.884480 
	C234.173965,89.046951 164.159958,144.433334 109.639038,219.102234 
	C51.627403,298.551880 20.214417,387.753418 14.545912,485.819580 
	C12.488403,521.414856 14.379516,556.981812 20.114388,592.329346 
	C28.229017,642.344727 43.269394,690.082642 66.033638,735.294678 
	C111.578804,825.751953 178.424896,896.267273 266.190826,946.713318 
	C334.977722,986.250732 409.326080,1007.540222 488.477356,1011.454285 
	C525.287842,1013.274597 561.989807,1011.093872 598.413330,1004.726196 
	C655.752197,994.702026 709.778809,975.505554 760.209229,946.521729 
	C835.733643,903.115601 896.129028,844.062378 941.108765,769.430664 
	C983.787231,698.617188 1006.925842,621.665588 1011.457825,539.251587 
	C1013.131165,508.822510 1011.884949,478.369324 1007.888977,448.032501 
	C1001.981262,403.182098 990.489319,359.887054 972.750427,318.329071 
	C937.214111,235.075546 882.954651,166.416916 810.438293,112.287544 
	C754.262085,70.355103 691.874084,41.732265 622.691284,25.989222 
z"/>
<path fill="#000000" opacity="1.000000" stroke="none" 
	d="
M411.467102,274.507141 
	C415.975952,272.345398 419.979279,270.089325 424.657990,266.225983 
	C416.279510,267.806793 409.304138,269.122864 402.328735,270.438934 
	C404.452179,267.047089 407.800171,267.068420 410.589844,265.831696 
	C412.836243,264.835754 415.514648,264.671326 416.744446,262.024933 
	C416.933716,261.617676 417.614166,260.998199 417.751007,261.071106 
	C421.736755,263.193817 426.914886,261.829102 430.342194,264.223083 
	C435.893188,268.100494 441.282074,269.426178 447.261322,266.325439 
	C451.198395,264.283752 455.098999,262.171814 459.410370,259.881836 
	C457.168213,257.586975 455.220917,258.320038 453.474182,259.597443 
	C449.996185,262.140869 446.562469,263.417664 442.441833,260.859955 
	C440.121185,259.419495 437.741974,262.191925 435.015564,261.255615 
	C435.641266,258.703827 438.165344,257.967957 439.518127,255.754562 
	C433.559540,260.658813 427.319977,255.256638 421.011627,257.756470 
	C421.343414,256.445129 421.323975,255.966385 421.510376,255.864594 
	C431.816772,250.236908 442.124084,244.610367 452.476196,239.067505 
	C454.515411,237.975647 456.479980,237.543945 459.081085,238.438110 
	C461.921204,239.414413 464.935028,238.304535 465.796936,234.721466 
	C466.037231,233.722687 466.588257,233.198395 467.334015,233.076096 
	C473.630646,232.043549 478.559814,226.417465 485.596313,227.746628 
	C487.233795,228.055954 488.850891,227.225418 489.834473,225.786545 
	C490.066742,224.922623 489.694763,224.458023 489.085449,224.064804 
	C487.766602,223.213730 486.335571,222.188156 487.863953,220.559830 
	C489.027191,219.320557 490.779358,219.416153 491.872040,220.694122 
	C494.081909,223.278717 496.674500,223.052689 500.173401,222.302628 
	C498.496704,221.459061 497.111023,221.163422 496.392212,220.307648 
	C495.269043,218.970581 494.764526,216.401306 497.137909,216.610779 
	C501.350616,216.982605 503.080505,214.580093 505.043976,211.810944 
	C505.797119,210.748734 507.016388,210.027573 508.384125,210.051834 
	C510.230896,210.531754 508.591736,212.722717 510.127991,213.290131 
	C510.360168,213.125595 510.813232,212.940353 510.801331,212.792572 
	C510.495758,208.998840 512.977478,207.291840 515.999084,206.479660 
	C520.587646,205.246323 523.891418,202.321609 526.979492,199.024002 
	C536.094849,189.290024 544.874207,179.295471 552.600586,168.373184 
	C564.855713,151.048965 580.677490,138.624878 601.942993,134.357330 
	C611.032410,132.533249 620.226562,133.488754 629.271057,134.865433 
	C632.029480,135.285278 633.199768,138.908539 635.420715,140.841843 
	C639.256653,144.180923 642.086060,143.336105 645.531860,141.072968 
	C644.505676,139.072769 641.702271,139.911484 640.419922,137.463074 
	C643.512939,137.448822 646.167725,137.045258 648.332642,139.326263 
	C648.764465,139.781158 649.376587,140.379227 649.906311,140.379974 
	C659.026367,140.392868 667.458191,145.123047 676.837097,143.975677 
	C680.946716,143.472916 685.415588,143.921799 690.062195,146.598541 
	C683.314148,149.395950 679.629150,155.570297 672.376343,156.636093 
	C666.707703,157.469086 661.039062,159.149673 655.212891,162.402115 
	C660.685608,163.116089 665.251892,161.641434 669.709229,160.510101 
	C677.011902,158.656586 684.417053,157.716827 691.864624,157.014191 
	C695.848511,156.638290 699.796143,156.736267 702.841064,153.391434 
	C704.101685,152.006683 705.986633,152.735443 707.573547,153.230118 
	C714.698547,155.451187 721.827271,157.662292 728.924622,159.969238 
	C732.747681,161.211868 735.052429,164.125763 737.334473,167.548752 
	C720.768738,169.241821 705.424500,174.517715 689.246765,175.302200 
	C682.292786,175.639404 675.440369,178.336594 668.517029,179.853180 
	C663.195862,181.018799 658.656494,184.580460 655.050659,188.953186 
	C643.690796,202.728790 634.598511,217.674088 630.350037,235.273788 
	C626.993652,249.177673 620.668579,261.679932 612.914551,273.732788 
	C601.878723,290.886749 589.672119,306.990143 575.979126,322.113892 
	C559.452637,340.367249 540.003906,354.099060 517.306702,363.539856 
	C499.388855,370.992706 488.350403,385.345917 480.132355,402.250732 
	C478.677124,405.244171 477.558014,408.406372 476.020660,411.353363 
	C472.826050,417.477173 471.663208,423.433411 473.756989,430.495392 
	C475.411621,436.076111 474.874420,442.310181 475.281281,448.256104 
	C475.550537,452.190765 472.998322,452.495850 469.657867,451.882050 
	C470.321625,454.765137 472.418671,456.028107 474.239563,456.480072 
	C483.960724,458.893005 489.566650,466.957855 496.935760,472.565918 
	C502.612885,476.886383 507.152435,482.647583 513.835510,485.721069 
	C516.236084,486.825073 517.437622,489.250610 520.423828,490.275391 
	C529.452942,493.373993 538.496582,493.140198 547.645752,492.268921 
	C552.425659,491.813660 555.946655,493.241699 558.734009,497.515839 
	C554.548218,498.573212 550.618835,494.797150 546.825562,497.837158 
	C547.308533,500.260193 549.497803,500.208435 551.079895,500.516479 
	C559.879761,502.230042 568.516479,504.908905 577.645813,504.720093 
	C582.477417,504.620117 585.936035,508.136810 589.465698,510.685211 
	C591.459473,512.124756 593.375427,513.592407 595.607056,514.632141 
	C668.885193,548.772278 714.201721,605.716736 729.644470,684.675598 
	C742.694641,751.401123 726.228516,812.266418 684.643066,865.978882 
	C648.872498,912.180847 602.074829,941.666321 544.371582,950.779419 
	C460.634613,964.003906 388.295807,940.282593 330.702850,877.137573 
	C300.028870,843.506714 282.380035,802.971924 276.787079,757.852600 
	C266.893494,678.039856 292.381195,610.510132 350.278748,555.193176 
	C372.727600,533.744934 399.126587,518.325134 428.470428,508.040100 
	C430.950714,507.170746 433.619843,506.694000 435.998322,504.776306 
	C434.515106,502.082672 434.637421,499.130249 435.045288,496.076294 
	C425.600311,492.528748 420.277100,499.414215 414.044006,504.955780 
	C413.856964,495.976532 421.154633,489.158844 429.930054,488.666962 
	C436.596832,488.293304 442.548706,491.492371 449.004517,492.218994 
	C453.809540,492.759827 458.495605,492.782898 463.922607,491.777496 
	C459.362000,484.584747 453.716095,479.148865 448.403198,473.512207 
	C438.805817,463.329895 428.866089,453.472870 417.320984,445.419434 
	C415.482208,444.136810 414.559692,442.208130 413.510071,440.279236 
	C407.783600,429.755768 407.417969,419.599915 414.533173,409.416901 
	C416.987000,405.905060 418.266602,401.594269 420.477386,397.883667 
	C422.010590,395.310425 420.749969,393.239868 419.566101,391.606750 
	C418.176239,389.689514 415.905426,390.112640 413.768280,391.291077 
	C410.709991,392.977448 407.553833,394.532684 404.314941,395.834106 
	C399.794830,397.650330 395.177307,398.612396 390.183929,397.509155 
	C383.442444,396.019623 376.431976,396.121033 370.298065,391.803833 
	C367.431854,389.786499 363.243622,391.414978 360.346466,393.327454 
	C356.047760,396.165100 351.912079,394.182068 349.695465,391.723511 
	C347.730347,389.544037 346.456757,390.155884 344.718201,390.364197 
	C330.549072,392.062134 316.672424,395.862579 302.234253,395.798096 
	C298.011475,395.779205 293.809692,398.063751 289.548981,398.268951 
	C273.335175,399.049774 257.274475,401.437714 241.150040,402.714020 
	C222.690689,404.175140 205.712814,410.032410 188.557053,415.835907 
	C167.423447,422.985077 146.266159,430.080566 125.297470,437.690735 
	C119.288055,439.871735 113.618935,436.382904 107.764404,438.387360 
	C112.500496,433.786652 118.774742,432.593475 124.202019,429.629456 
	C115.541649,431.796204 107.112762,435.062622 98.133049,435.163635 
	C97.707886,433.537903 98.356712,433.084198 99.190475,432.781708 
	C99.797623,432.561401 100.423424,432.392517 100.977486,432.220398 
	C101.036491,431.232483 100.415939,431.405151 99.996681,431.400940 
	C97.330498,431.373962 94.663994,431.378754 91.997612,431.370117 
	C85.259354,431.348236 83.642235,430.506836 82.868942,423.799194 
	C82.413452,419.848206 78.880417,420.963593 77.188583,418.737091 
	C80.630127,416.051056 84.650406,415.446350 88.286346,414.395691 
	C90.110779,415.543579 88.528595,417.069000 89.177292,418.316437 
	C95.898499,420.407776 101.773842,417.425293 107.931091,415.512115 
	C122.631500,410.944397 136.167084,403.330933 151.045761,399.282837 
	C151.985916,399.027039 153.175308,398.662231 153.957123,399.007874 
	C161.936417,402.535248 169.344772,398.002594 176.944916,397.736267 
	C188.919083,397.316620 198.740189,391.326172 209.653534,388.385925 
	C218.058319,386.121490 225.806412,381.987122 234.173920,380.210388 
	C239.147980,379.154205 244.467514,379.675079 249.068542,376.872131 
	C248.621033,373.414062 246.449661,373.150238 243.494659,373.460449 
	C233.608978,374.498169 223.664810,374.939331 213.769165,375.652405 
	C204.803436,376.298431 195.959839,379.438538 187.198761,381.954010 
	C170.400406,386.777161 153.709488,391.973694 136.942413,396.908020 
	C134.991226,397.482178 132.935715,398.448700 130.599930,397.803619 
	C131.441315,394.621857 134.650864,395.492523 137.056458,392.912415 
	C132.701370,394.043457 129.358994,394.909637 126.018265,395.782104 
	C125.696564,395.866119 125.391167,396.015808 125.067879,396.089996 
	C121.923988,396.811127 117.933189,399.201447 115.853317,396.056427 
	C113.872398,393.061035 117.910164,390.719635 120.173531,387.963806 
	C118.190475,388.061920 116.749382,388.171509 115.306839,388.196014 
	C112.928558,388.236420 110.407845,388.185547 109.195282,385.744293 
	C107.969368,383.276245 109.603020,381.201874 110.995468,379.378204 
	C115.232109,373.829437 121.445602,371.250153 127.663994,368.814941 
	C137.453491,364.981201 147.683762,362.553284 157.807922,359.836090 
	C185.026367,352.530884 211.972015,344.753296 236.446915,329.990173 
	C241.807556,326.756653 246.643433,322.803772 252.111023,319.766174 
	C254.554962,318.408447 256.345886,316.004974 257.009003,313.067749 
	C258.191650,307.829315 261.889893,304.931000 266.476440,302.855316 
	C288.314209,292.972443 310.080597,282.718903 333.109741,276.028839 
	C348.725098,271.492462 363.420563,264.989532 378.358246,258.907501 
	C382.682617,257.146820 386.928711,255.346832 390.814697,252.643921 
	C394.861176,249.829407 399.805878,249.347870 404.498962,248.226196 
	C417.782288,245.051453 430.886780,241.235306 443.879181,237.018951 
	C445.916992,236.357635 448.062561,234.725800 451.698792,237.452499 
	C445.701935,238.509460 441.557922,241.391205 437.086884,243.670273 
	C426.140869,249.249847 414.963409,254.351059 405.662476,262.797058 
	C402.592804,265.584564 398.010712,266.724976 394.087830,268.549042 
	C390.467560,270.232391 386.621002,271.583008 383.694946,274.393188 
	C380.293274,277.660126 375.328918,275.732391 371.721466,278.362274 
	C369.466064,280.006470 366.846161,281.150665 363.508148,283.010437 
	C369.999298,283.989044 375.023560,280.698547 380.674164,281.614990 
	C353.960510,288.202423 329.474365,299.775085 305.183197,312.262604 
	C306.774994,314.962952 308.076141,313.787628 309.160675,313.347260 
	C324.721741,307.028625 341.334900,303.608521 356.485107,296.164398 
	C364.999542,298.326904 370.632721,291.205109 377.920532,289.183594 
	C386.059387,286.925995 395.055420,285.474335 401.453308,278.328522 
	C403.496338,276.046661 407.830231,275.815857 411.467102,274.507141 
M389.711426,553.267212 
	C371.686279,564.453308 356.168549,578.528748 342.934784,595.005798 
	C304.226257,643.200684 290.161499,698.244568 299.871155,758.936401 
	C307.674927,807.715088 330.955261,848.560730 368.069702,881.242188 
	C402.403320,911.474915 442.365479,929.210327 488.107880,932.498291 
	C528.444946,935.397766 566.507507,926.899963 602.172119,907.482117 
	C671.171082,869.915222 717.937134,789.135132 710.914368,709.652649 
	C707.668518,672.916565 695.901184,639.372314 674.724365,609.388550 
	C640.872986,561.459412 594.950928,531.773315 537.132324,520.972412 
	C514.396057,516.725159 491.486450,515.600220 468.648438,520.028320 
	C440.301422,525.524536 414.597900,537.554260 389.711426,553.267212 
M544.678772,250.344009 
	C546.587585,249.740845 547.875732,250.419418 548.717163,252.346191 
	C546.987061,255.352798 542.851196,255.897217 541.151611,259.142334 
	C546.893066,261.467377 550.164185,256.353638 555.084534,255.012558 
	C556.891113,262.333069 561.327026,260.681305 566.307983,257.172150 
	C566.307983,259.674683 566.307983,261.075684 566.307983,262.440796 
	C571.578613,262.950836 571.578613,262.950806 576.405212,260.315125 
	C581.790833,257.374115 584.403809,258.408600 586.132507,264.166107 
	C592.325745,263.759888 594.409912,262.134827 592.926025,258.609467 
	C591.425171,255.043854 587.929749,251.397507 584.916687,251.918640 
	C578.833740,252.970734 577.501587,249.032211 575.381531,245.445663 
	C571.377258,247.924820 570.913696,247.978180 568.964844,244.021454 
	C567.550415,241.149689 565.979431,241.095673 564.022461,242.996948 
	C562.130920,244.834610 560.404480,245.014450 557.771057,244.357147 
	C546.146179,241.455475 533.072205,242.975266 522.948059,248.166794 
	C528.996155,246.839111 534.419495,244.892548 540.167847,247.516281 
	C537.850891,250.748489 534.098206,248.385483 530.390808,250.523560 
	C535.714966,250.580017 539.743774,253.108459 544.678772,250.344009 
M479.353149,470.163544 
	C472.064911,464.049255 464.399017,458.416992 455.991913,453.988007 
	C451.285461,451.508606 448.168823,448.027252 445.930023,443.383606 
	C444.778046,440.994202 443.962158,438.279053 441.217163,436.149994 
	C439.643188,443.195282 442.500763,448.124359 446.566040,452.472473 
	C452.135712,458.429596 457.948547,464.158966 463.627686,470.014526 
	C464.762115,471.184174 466.511353,472.183716 466.314575,474.024963 
	C465.922272,477.695312 468.088989,478.540070 471.008636,479.048889 
	C472.083252,479.236176 473.178436,479.915131 474.036224,480.639771 
	C480.675964,486.248688 488.292358,490.216400 496.118073,493.809387 
	C498.215881,494.772614 500.863953,495.686920 502.543030,493.522064 
	C504.490143,491.011536 501.653412,489.577148 500.240997,488.308716 
	C493.556061,482.305267 486.695557,476.497314 479.353149,470.163544 
M307.085205,316.728455 
	C299.375366,318.942596 292.220398,322.549927 284.841492,325.594360 
	C282.063568,326.740417 279.235962,328.212585 276.215118,327.712463 
	C271.049805,326.857300 266.321655,328.601257 261.486847,329.650299 
	C259.132874,330.161072 256.565887,330.934326 256.140961,334.343231 
	C259.153229,335.287201 260.545105,339.610382 264.689545,338.148743 
	C280.177429,332.686646 296.575836,329.623383 310.755798,320.717682 
	C313.324371,319.104492 315.984985,318.070892 319.043823,317.550201 
	C323.310028,316.824036 328.078369,316.308960 331.484589,314.006439 
	C335.209503,311.488464 338.743073,308.469818 342.348755,305.399414 
	C330.842438,309.086456 319.336121,312.773499 307.085205,316.728455 
M482.637695,511.873596 
	C489.042267,509.676392 496.200836,513.711609 503.249207,509.860901 
	C487.910309,503.420074 437.914581,509.671814 431.059235,518.442993 
	C432.977783,520.323425 435.410034,519.909363 437.658142,519.725708 
	C452.600403,518.504944 467.145844,514.950745 482.637695,511.873596 
M247.686996,387.044708 
	C255.935654,383.882294 264.184296,380.719910 273.048401,377.321594 
	C272.181549,381.015472 268.922516,380.300110 267.787018,382.112183 
	C279.568146,379.957214 290.396088,375.445251 300.784607,369.330261 
	C295.585083,369.034882 290.455078,369.250336 285.362061,369.805420 
	C275.302124,370.901886 266.884674,378.032013 256.420166,377.830841 
	C255.809067,377.819092 254.868393,378.663574 254.617416,379.315918 
	C253.918518,381.132599 252.356766,381.633179 250.837219,382.273865 
	C242.724609,385.694519 234.604019,389.096283 226.499893,392.536926 
	C224.089661,393.560211 221.723831,394.688049 219.337662,395.767975 
	C229.126251,394.376984 238.026993,390.787720 247.686996,387.044708 
M608.477295,529.140564 
	C594.084656,522.683716 580.959534,512.914978 563.688171,511.337738 
	C565.893311,514.927063 568.715637,515.718811 571.289429,516.698364 
	C577.051636,518.891235 582.568054,521.579651 588.045105,524.380310 
	C600.919861,530.963745 613.812866,537.511475 626.702942,544.064941 
	C631.247681,546.375488 631.574524,546.432434 635.053467,545.681763 
	C626.680420,539.505981 618.531250,533.518921 608.477295,529.140564 
M565.333679,936.883179 
	C567.538452,936.240967 569.814453,935.757690 572.631348,933.290588 
	C555.067505,933.666016 539.141663,937.149109 523.261597,941.128784 
	C537.424805,943.661438 551.031921,940.641235 565.333679,936.883179 
M206.531601,356.832367 
	C206.565186,358.996521 207.462875,360.527649 209.812515,359.906433 
	C213.073578,359.044281 216.370514,359.300781 219.645218,359.006012 
	C222.257874,358.770813 224.833084,358.110260 226.106567,355.108673 
	C227.111618,352.739807 229.589844,352.038177 231.528961,353.343628 
	C236.884521,356.949005 239.612198,357.177216 244.942596,353.564819 
	C241.473480,354.031250 237.779587,356.071930 235.016495,351.949310 
	C233.362274,349.481201 233.450226,347.350220 235.765182,345.193207 
	C226.165985,348.953552 216.566788,352.713898 206.531601,356.832367 
M385.991852,910.097473 
	C385.766449,910.178345 385.541077,910.259216 385.315704,910.340088 
	C385.496307,910.610474 385.628540,910.935852 385.864380,911.143433 
	C400.023621,923.603333 416.471619,931.618896 434.673676,936.196594 
	C435.808868,936.482117 437.064789,936.980347 438.763733,935.905701 
	C435.577454,934.532898 432.857117,933.339783 430.120575,932.185242 
	C415.082794,925.840881 400.120880,919.345947 385.991852,910.097473 
M250.752686,349.101929 
	C255.102814,348.555054 259.293091,347.595032 263.017761,344.856110 
	C254.843643,336.729431 253.514542,336.556183 244.555374,342.171600 
	C244.052292,343.586487 246.264297,344.226257 245.522079,345.891998 
	C243.988663,348.086243 240.728790,348.118164 238.537231,350.487000 
	C242.689880,350.979889 246.370804,350.754547 250.752686,349.101929 
M176.254593,373.660645 
	C184.378860,372.319641 190.483826,366.551666 198.632980,364.407379 
	C194.691147,360.707428 167.562927,370.649384 158.349640,378.428833 
	C164.295715,376.836792 169.879715,375.341705 176.254593,373.660645 
M314.212494,829.300476 
	C320.316559,841.454834 327.483307,852.847778 337.740265,862.045898 
	C330.289612,847.789734 321.091125,834.663879 311.609253,821.642029 
	C312.376862,823.966736 313.144501,826.291382 314.212494,829.300476 
M457.660431,273.807312 
	C463.547333,275.241516 468.517517,273.186768 473.425049,270.255219 
	C472.142334,267.236664 470.054108,266.581482 467.926025,267.535645 
	C463.040161,269.726318 461.791992,267.485229 462.342712,262.518585 
	C457.414215,264.761505 452.807892,266.159454 448.420593,269.032928 
	C451.429718,271.385590 454.123352,272.603729 457.660431,273.807312 
M695.036438,625.038879 
	C688.960815,610.637573 680.577515,597.762024 669.788208,585.529724 
	C669.245667,588.238464 670.271912,589.477661 671.031616,590.672729 
	C679.027100,603.249146 687.094116,615.779968 695.141418,628.323425 
	C695.365906,628.209900 695.590393,628.096436 695.814880,627.982910 
	C695.626892,627.203918 695.438965,626.424988 695.036438,625.038879 
M345.698395,568.193726 
	C330.791412,582.731812 326.090424,588.769287 325.101562,595.115906 
	C335.782288,583.766785 346.124420,572.777588 356.466522,561.788330 
	C351.859406,562.200195 349.265198,565.295898 345.698395,568.193726 
M487.577240,262.906860 
	C482.784393,262.117584 477.855469,261.871735 473.489075,259.381714 
	C473.347595,259.301025 473.134186,259.174469 473.125854,259.057190 
	C472.867554,255.411835 470.037079,256.656677 468.047180,256.434296 
	C466.546753,256.266632 465.417175,256.789703 465.422821,258.598541 
	C465.428375,260.370117 466.354675,261.971741 468.013702,261.474274 
	C473.831390,259.729858 477.645813,264.752899 482.832397,265.566772 
	C488.540009,266.462402 489.313843,267.201050 491.828644,261.879395 
	C490.387299,261.039276 489.317627,262.132446 487.577240,262.906860 
M668.955078,869.576477 
	C662.916931,875.625244 656.729553,881.546448 651.395325,889.347900 
	C659.026672,886.604370 671.876770,872.884338 672.453247,867.164612 
	C671.312256,867.909790 670.379089,868.519287 668.955078,869.576477 
M334.585083,871.911682 
	C337.324768,874.959717 340.051880,878.022644 344.917084,880.511292 
	C339.261261,871.774109 332.804230,865.374207 325.239685,858.249756 
	C327.766876,863.952515 330.797363,867.767029 334.585083,871.911682 
M517.508179,236.142181 
	C518.854614,233.426926 517.563293,230.744232 517.359436,228.048599 
	C519.414246,227.191986 521.260071,228.666977 523.750244,228.413513 
	C522.749207,226.379593 524.720398,225.958145 525.858948,224.872116 
	C521.807312,224.186325 518.071472,225.250092 512.993713,228.472000 
	C513.150574,229.965805 514.475342,231.126511 513.873962,233.029877 
	C513.191345,235.190353 514.814819,236.284592 517.508179,236.142181 
M678.638489,589.594910 
	C679.431213,590.121460 680.174255,591.041077 681.181519,589.930908 
	C679.293762,584.968140 670.141968,574.744324 665.816467,573.966919 
	C670.344849,579.518982 674.263855,584.323914 678.638489,589.594910 
M499.362976,229.760681 
	C500.860626,229.408524 502.358246,229.056366 504.656921,228.515854 
	C500.528839,227.732635 497.408997,228.610214 494.444214,229.533813 
	C491.892273,230.328781 486.901367,229.438934 487.653931,233.444138 
	C488.436096,237.606705 492.978760,235.644440 496.087311,235.820908 
	C496.066589,233.907043 493.342651,234.869736 493.694183,232.846161 
	C494.765930,231.011597 496.807648,230.638458 499.362976,229.760681 
M535.509644,223.493927 
	C533.879089,223.276550 532.249084,223.054688 530.617798,222.842926 
	C528.487793,222.566406 528.024292,223.886246 528.195618,225.565033 
	C528.361633,227.191956 529.537537,227.701340 531.031067,227.628113 
	C533.164673,227.523483 536.194702,225.190109 535.509644,223.493927 
M297.813385,333.212708 
	C296.240326,333.462250 294.567657,333.472290 292.987854,335.521362 
	C301.602051,333.484344 309.589844,331.595490 317.577637,329.706604 
	C317.508545,329.400085 317.439453,329.093536 317.370361,328.787018 
	C311.103424,330.215088 304.836517,331.643127 297.813385,333.212708 
M507.537048,235.321121 
	C506.283051,236.962326 504.107513,238.559967 506.832581,240.625763 
	C508.073700,241.566589 509.887360,242.082291 510.460785,240.060379 
	C511.050629,237.980408 511.626038,235.356888 507.537048,235.321121 
M478.474518,236.037109 
	C479.758789,234.972733 481.043030,233.908356 482.975983,232.306335 
	C473.890167,234.024094 473.890167,234.024094 474.150146,238.305511 
	C476.002502,238.894730 476.694427,237.091095 478.474518,236.037109 
M277.920898,347.596100 
	C278.296753,347.315765 278.672607,347.035431 279.048462,346.755066 
	C278.909180,346.679138 278.753082,346.516479 278.632996,346.539703 
	C272.791168,347.670135 266.952393,348.816620 261.113281,349.961304 
	C261.189087,350.322510 261.264893,350.683685 261.340668,351.044891 
	C266.674408,349.949097 272.008118,348.853333 277.920898,347.596100 
M442.280243,417.709930 
	C442.089996,419.573456 441.899750,421.436951 441.709503,423.300476 
	C443.686157,419.250885 445.163147,415.144379 445.246002,409.876312 
	C443.572418,412.562317 442.813660,414.691315 442.280243,417.709930 
M484.738068,240.777298 
	C487.752930,243.677002 488.206085,240.680664 489.538818,238.998993 
	C486.931763,236.909592 485.424683,237.413666 484.738068,240.777298 
z"/>
<path fill="#000000" opacity="1.000000" stroke="none" 
	d="
M575.137451,499.651245 
	C582.871033,495.585052 588.354797,500.295013 594.313660,503.721008 
	C593.705261,505.338318 593.085815,506.985077 592.350586,508.939667 
	C589.163025,507.537628 588.049683,503.478516 584.395325,503.358856 
	C581.262329,503.256287 578.112183,503.442444 574.994080,503.193481 
	C572.240112,502.973663 570.040649,500.631500 566.980164,500.700745 
	C569.195251,497.382111 572.021667,498.809113 575.137451,499.651245 
z"/>
<path fill="#000000" opacity="1.000000" stroke="none" 
	d="
M386.515778,502.268494 
	C395.172485,499.207947 401.006073,500.515289 404.505798,505.972961 
	C394.815094,509.958282 390.938904,509.229340 386.515778,502.268494 
z"/>
<path fill="#000000" opacity="1.000000" stroke="none" 
	d="
M419.873657,589.649902 
	C416.949982,614.542480 414.041016,638.983887 411.291138,663.443176 
	C410.299316,672.265320 408.987488,680.921570 404.160370,688.640503 
	C397.597931,699.134399 398.129974,711.267578 396.298920,722.861267 
	C395.666443,726.865845 395.885834,731.189575 393.060028,734.375854 
	C391.291901,734.706787 390.634430,733.672363 389.943481,732.748352 
	C371.471588,708.045715 351.367950,684.650208 331.593262,661.019226 
	C324.255676,652.250793 323.997223,644.865417 328.916718,635.336121 
	C342.881531,608.285461 362.220764,586.052734 386.854126,568.280151 
	C396.322693,561.448730 406.061371,555.049622 416.147888,549.183167 
	C418.183289,547.999390 420.231262,545.583435 422.879395,547.517395 
	C425.333435,549.309509 424.268829,552.143188 424.009155,554.513428 
	C422.741180,566.086792 421.318939,577.643311 419.873657,589.649902 
M392.090210,707.544006 
	C391.770233,704.248718 393.022614,700.632324 390.338348,697.705444 
	C384.818481,701.646667 384.299103,717.874146 389.591644,723.127075 
	C392.110291,718.427673 391.638245,713.375122 392.090210,707.544006 
z"/>
<path fill="#000000" opacity="1.000000" stroke="none" 
	d="
M609.020996,559.897034 
	C640.933655,580.444702 664.127380,608.272461 681.429749,641.319641 
	C683.794250,645.835754 682.886536,647.612549 677.722412,647.174561 
	C668.625183,646.403076 659.575806,645.048157 650.514893,643.871948 
	C623.494629,640.364624 596.729980,635.030823 569.568176,632.538818 
	C567.582336,632.356628 565.571777,632.241943 563.583008,632.329529 
	C556.106506,632.658936 549.214783,631.062439 542.423889,627.693359 
	C529.320190,621.192200 515.333679,617.668274 500.643951,617.165466 
	C498.535034,617.093323 496.192841,617.270325 495.089203,614.455872 
	C496.512695,611.834290 499.132721,610.248596 501.394318,608.402283 
	C525.893982,588.401367 550.494080,568.523132 574.942505,548.459961 
	C578.057190,545.903931 580.663086,545.440979 584.389832,547.022522 
	C592.850098,550.612854 600.911682,554.890381 609.020996,559.897034 
M526.129456,609.209229 
	C520.091125,606.765198 514.085144,606.357971 507.660553,609.041931 
	C513.294617,614.421692 527.093872,616.948242 531.873657,613.774780 
	C531.239563,611.123840 528.768188,610.599792 526.129456,609.209229 
z"/>
<path fill="#000000" opacity="1.000000" stroke="none" 
	d="
M630.911377,874.933838 
	C615.167480,888.346558 592.075439,902.773376 584.557983,903.781433 
	C584.497192,894.596924 586.152527,885.615112 587.048767,876.590576 
	C588.740173,859.558105 590.824829,842.564941 592.671936,825.547485 
	C594.447266,809.190796 596.069885,792.817383 597.924561,776.469971 
	C598.159851,774.395935 599.214050,772.342529 600.194580,770.436768 
	C607.707947,755.832947 610.856201,740.073608 612.679810,723.949524 
	C612.934387,721.698547 612.136841,718.551941 614.599182,717.658142 
	C617.603577,716.567688 619.216553,719.636047 620.892883,721.605896 
	C634.504822,737.601318 646.723816,754.685486 659.606384,771.251587 
	C667.070862,780.850464 674.424316,790.537659 682.022827,800.028992 
	C683.873718,802.341003 684.059875,804.164734 682.782349,806.745056 
	C669.927856,832.707581 653.481567,855.920776 630.911377,874.933838 
M618.585205,751.826294 
	C623.574280,743.935974 623.855103,733.574646 618.760620,728.521851 
	C616.030396,736.186951 616.152405,743.979858 615.465942,751.606995 
	C615.268311,753.802979 616.868469,753.334961 618.585205,751.826294 
z"/>
<path fill="#000000" opacity="1.000000" stroke="none" 
	d="
M452.592865,893.569153 
	C475.789459,875.357666 499.690948,858.625427 521.911743,839.752869 
	C530.145752,832.759583 538.199890,826.348389 549.011353,822.994019 
	C560.816467,819.331360 570.242859,810.752319 579.794373,802.913391 
	C582.081177,801.036560 584.395569,797.371216 587.822144,799.456055 
	C590.878296,801.315552 588.421570,804.739685 587.998169,807.296265 
	C584.653442,827.490417 583.200562,847.882996 581.259277,868.226013 
	C580.280701,878.480896 579.198975,888.726501 578.093811,898.968689 
	C577.494080,904.526062 573.800476,907.827881 569.254028,910.293884 
	C559.321655,915.681152 548.412415,918.048401 537.480408,920.286072 
	C504.561096,927.024353 472.631104,922.027649 441.149384,912.031006 
	C435.982635,910.390381 435.520660,908.603516 439.459045,904.866882 
	C443.557587,900.978210 448.014832,897.467651 452.592865,893.569153 
M579.895935,817.442688 
	C580.954468,815.901611 583.442993,814.416199 581.756592,812.442932 
	C579.850708,810.212952 577.794067,812.445679 576.122559,813.546875 
	C573.230408,815.452087 570.489685,817.591919 567.729858,819.691772 
	C565.534424,821.362244 563.300659,823.046021 562.723511,826.575317 
	C570.549133,827.357544 574.604248,821.898193 579.895935,817.442688 
z"/>
<path fill="#000000" opacity="1.000000" stroke="none" 
	d="
M416.975952,809.306519 
	C386.306213,805.800903 356.028381,802.820374 326.055481,797.441650 
	C322.256104,796.759827 320.232300,795.194946 318.977539,791.622559 
	C304.028595,749.060303 302.586121,706.401489 317.803284,663.578674 
	C318.247894,662.327454 318.803680,661.109741 319.393982,659.919189 
	C319.671234,659.359985 320.154144,658.902832 320.887909,657.955017 
	C326.542908,662.978027 330.544556,669.120850 335.098816,674.715637 
	C357.070129,701.706665 378.840607,728.861023 400.747528,755.904663 
	C403.215057,758.950745 404.854065,762.075073 405.557831,766.063904 
	C406.879913,773.557312 410.817657,780.020264 415.076019,786.237549 
	C419.215363,792.280884 423.391357,798.299561 427.474670,804.380615 
	C428.468079,805.859985 429.694672,807.330322 429.480774,809.613647 
	C425.449432,811.504639 421.442596,808.862549 416.975952,809.306519 
M403.616760,787.258972 
	C405.516785,795.146423 409.480927,801.338257 417.039703,804.630188 
	C418.206451,803.535583 418.368805,802.673584 418.009552,801.905212 
	C415.086487,795.652832 410.492737,790.626892 405.822906,785.689270 
	C404.844177,784.654297 404.081940,785.569458 403.616760,787.258972 
M323.253723,761.441772 
	C323.269257,757.778564 322.434875,754.411621 319.788971,751.041016 
	C318.682190,755.278992 319.610474,758.717957 320.891022,762.071533 
	C321.481262,763.617371 322.416229,764.596130 323.253723,761.441772 
z"/>
<path fill="#000000" opacity="1.000000" stroke="none" 
	d="
M474.255920,868.291138 
	C459.770660,879.787476 445.493896,890.978638 431.429108,902.430237 
	C428.009247,905.214661 425.258331,905.659302 421.148529,903.716614 
	C379.731171,884.139282 348.717438,854.051025 328.547913,812.867065 
	C327.541412,810.811951 326.659943,808.695618 325.567596,806.268555 
	C329.700378,804.663452 333.206696,806.399109 336.636261,806.850464 
	C365.960602,810.710083 395.357422,813.896362 424.786926,816.813599 
	C434.045837,817.731384 443.296906,818.743042 452.534668,819.852478 
	C456.157104,820.287598 459.597565,821.290894 462.910553,823.095642 
	C477.038605,830.791687 492.467163,833.966370 508.290100,835.645752 
	C509.692139,835.794495 511.328796,835.266907 512.906738,837.494446 
	C500.122650,847.687073 487.332489,857.884460 474.255920,868.291138 
M480.189240,842.539429 
	C488.699066,845.830444 496.370789,845.422241 500.421539,840.962280 
	C492.245544,838.175354 484.328247,836.516968 475.320984,837.643433 
	C476.124237,838.959351 476.361847,839.609802 476.813110,840.031555 
	C477.655640,840.819031 478.622406,841.473572 480.189240,842.539429 
M346.111603,821.287170 
	C350.735565,829.669312 356.408997,837.166870 364.100739,843.845215 
	C364.490265,842.388794 364.859222,841.808960 364.702484,841.478699 
	C360.426636,832.470459 353.711304,825.523254 345.965576,819.458618 
	C345.941833,819.899353 345.918091,820.340149 346.111603,821.287170 
z"/>
<path fill="#000000" opacity="1.000000" stroke="none" 
	d="
M673.651855,652.030151 
	C689.762695,655.151794 687.524414,653.630371 692.156189,668.527283 
	C698.216064,688.016968 701.615540,708.013062 701.160400,728.473145 
	C700.690491,749.598999 696.372131,770.059509 689.284119,789.946533 
	C688.893799,791.041748 688.530701,792.150513 687.398987,792.778625 
	C685.593140,792.735840 684.984558,791.164795 684.081604,790.057190 
	C658.705383,758.932251 633.359680,727.782349 607.981689,696.658875 
	C605.726990,693.893799 604.299133,690.920837 603.533997,687.352173 
	C601.385803,677.332947 595.514404,669.168701 589.668091,661.024048 
	C585.531250,655.261047 581.274475,649.552734 577.674194,641.859985 
	C610.329712,645.307068 641.776794,648.626648 673.651855,652.030151 
M591.078369,647.888428 
	C589.011414,648.848816 590.459473,650.103638 590.949158,651.061707 
	C593.299866,655.661072 596.128174,659.976807 599.468506,663.910889 
	C600.655090,665.308411 601.675598,667.349060 604.139160,666.932617 
	C605.173645,660.164673 599.282410,651.273804 591.078369,647.888428 
M685.358765,742.949829 
	C685.489685,744.319397 684.751038,745.882935 686.437683,747.172058 
	C688.926697,744.668701 689.427307,742.189331 687.195251,739.271912 
	C685.732178,740.007202 685.799438,741.260010 685.358765,742.949829 
z"/>
<path fill="#000000" opacity="1.000000" stroke="none" 
	d="
M428.856110,568.165527 
	C429.511963,562.430786 430.469696,557.163086 430.655823,551.868347 
	C430.890228,545.198486 433.590088,541.314514 440.277893,539.417542 
	C450.212250,536.599670 460.256012,534.346252 470.306458,532.048035 
	C502.090179,524.780029 533.097595,528.312622 563.644531,538.547180 
	C566.270813,539.427124 568.824768,540.523193 570.976257,541.351074 
	C571.465576,543.090637 570.782654,543.623413 570.120667,544.112549 
	C537.964355,567.871216 508.186737,594.555786 477.171173,619.717468 
	C472.216248,623.737183 467.101929,627.082642 460.851715,628.970947 
	C447.623413,632.967529 436.013702,640.126709 425.181122,648.603210 
	C423.800507,649.683472 422.706848,651.404785 419.815491,651.025513 
	C422.817352,623.539978 425.816376,596.080261 428.856110,568.165527 
M431.859283,629.301636 
	C428.970215,631.950989 425.920898,634.508057 426.010315,638.999634 
	C431.472076,639.408386 442.324341,631.761230 444.940857,625.669189 
	C440.118256,624.463135 436.196198,626.310303 431.859283,629.301636 
M468.667358,539.403137 
	C465.275848,540.490356 461.249603,540.226685 458.113159,544.631592 
	C464.407593,544.567932 469.384064,543.872009 474.054474,540.611145 
	C472.396149,538.750488 470.834686,539.476929 468.667358,539.403137 
z"/>
</svg>